<?xml version="1.0" encoding="utf-8"?>
<!-- Generator: Adobe Illustrator 26.0.1, SVG Export Plug-In . SVG Version: 6.00 Build 0)  -->
<svg version="1.1" id="Layer_1" xmlns="http://www.w3.org/2000/svg" xmlns:xlink="http://www.w3.org/1999/xlink" x="0px" y="0px"
	 viewBox="0 0 500 500" style="enable-background:new 0 0 500 500;" xml:space="preserve">
<style type="text/css">
	.st0{enable-background:new    ;}
	.st1{fill:#F0562D;}
</style>
<g class="st0">
	<path class="st1" d="M455.9,487.3H215.8L265.7,351h-22.2L197,476.3c-2.2,6.9-7.2,11-13.3,11H45c-6.1,0-11.1-6.2-11.1-13.8
		l-1.1-117.8c0-7.6,5-13.8,11.1-13.8h17.2L173.7,67.2c9.4-23.4,28.2-39.9,50.4-39.9h67.1c20.5,0,37.7,13.8,46,37.2L435.9,342h18.9
		c6.1,0,11.1,6.2,11.1,13.8l1.1,117.8C467,481.1,462,487.3,455.9,487.3z M327.8,182.9c2.8-7.6,1.1-15.1-3.9-17.9
		c-5.5-3.4-11.6,0-14.4,7.6l-32.7,88.1H299L327.8,182.9z"/>
</g>
</svg>
